<svg xmlns="http://www.w3.org/2000/svg" width="40" height="40" viewBox="0 0 40 40"><path fill-rule="evenodd" clip-rule="evenodd" fill="#fff" d="M28.818 16.457c-.258.258-.613.334-.947.265v-2.775h-7.353c-.187-.909-.187-1.847 0-2.756h7.353v-2.795c.334-.068.689.008.947.267l3.157 3.157c.408.408.408 1.07 0 1.479l-3.157 3.158zm-3.668 9.84l.021.023c.637-.35 1.264-.771 1.885-1.225l5.944 5.264c-1.255 1.084-2.613 1.973-4.045 2.641-3.802-.703-8.675-3.531-13.05-7.906-4.372-4.375-7.198-9.243-7.905-13.045.669-1.433 1.559-2.794 2.642-4.049l5.266 5.947c-.451.621-.872 1.249-1.223 1.885l.023.023c-.616 1.352.809 4.297 3.477 6.965 2.668 2.668 5.612 4.094 6.965 3.477z"/></svg>