<svg xmlns="http://www.w3.org/2000/svg" width="40" height="40" viewBox="0 0 40 40"><path d="M34 31.044c-1.405 1.212-2.927 2.207-4.53 2.956-4.258-.788-9.715-3.955-14.617-8.856-4.896-4.897-8.062-10.35-8.853-14.607.749-1.607 1.745-3.13 2.958-4.537l5.899 6.661c-.506.696-.978 1.398-1.371 2.11l.027.025c-.691 1.515.906 4.813 3.894 7.802 2.987 2.988 6.286 4.585 7.801 3.895l.025.025c.713-.393 1.415-.864 2.111-1.369l6.656 5.895zm-11.408-10.852c.518 0 1.021-.035 1.515-.09v-11.559c-.493-.056-.997-.09-1.515-.09s-1.021.035-1.515.09v11.56c.493.054.997.089 1.515.089zm6.712-.089v-11.56c-.492-.056-.997-.09-1.514-.09-.518 0-1.021.035-1.516.09v11.56c.494.055.998.09 1.516.09.517-.001 1.022-.036 1.514-.09z" fill-rule="evenodd" clip-rule="evenodd" fill="#fff"/></svg>