<svg xmlns="http://www.w3.org/2000/svg" width="30" height="30" viewBox="0 0 30 30"><path fill="#575757" d="M17.936 10.924v1.867c-.223.047-.463-.004-.637-.178l-2.124-2.125c-.275-.274-.275-.72 0-.995l2.124-2.124c.174-.174.414-.225.637-.18v1.88h4.445c.125.611.125 1.243 0 1.854l-4.445.001zm.058 7.779l.014.014c.406-.223.809-.496 1.203-.787l3.789 3.355c-.799.693-1.652 1.287-2.568 1.715-2.438-.451-5.56-2.264-8.363-5.07-2.804-2.803-4.616-5.923-5.069-8.36.427-.914 1.023-1.769 1.715-2.57l3.358 3.792c-.29.396-.563.797-.788 1.203l.016.015c-.396.867.519 2.754 2.227 4.465 1.71 1.709 3.601 2.623 4.466 2.228z"/></svg>