<svg xmlns="http://www.w3.org/2000/svg" width="40" height="40" viewBox="0 0 40 40"><path fill-rule="evenodd" clip-rule="evenodd" fill="#fff" d="M24.477 13.946v2.777c-.332.068-.688-.008-.945-.264l-3.159-3.159c-.407-.409-.407-1.071 0-1.478l3.158-3.158c.258-.257.613-.334.945-.267v2.793h7.354c.188.908.188 1.848 0 2.756h-7.353zm.673 12.351l.023.022c.636-.351 1.264-.772 1.883-1.226l5.944 5.263c-1.254 1.085-2.613 1.974-4.044 2.644-3.802-.706-8.676-3.532-13.051-7.906-4.372-4.373-7.199-9.243-7.905-13.043.669-1.436 1.559-2.795 2.642-4.051l5.266 5.946c-.452.622-.872 1.249-1.223 1.885l.023.023c-.616 1.353.809 4.298 3.476 6.966 2.67 2.666 5.614 4.093 6.966 3.477z"/></svg>